# xmcd
#
# Track frame offsets:
#	150
#	26645
#	43091
#	70928
#	88102
#	100946
#	124272
#	136018
#
# Disc length: 2067 seconds
#
# Revision: 1
# Processed by: cddbd v1.5PL3 Copyright (c) Steve Scherf et al.
# Submitted via: CDex 1.50Beta5
#
DISCID=6a081108
DTITLE=Wynton Kelly - Autumn Leaves
DYEAR=1900
DGENRE=Jazz
TTITLE0=Come Rain Or Shine
TTITLE1=Make The Man Love Me
TTITLE2=Autumn Leaves
TTITLE3=Surry With The Fringe On Top
TTITLE4=Joe's Avenue
TTITLE5=Sassy
TTITLE6=Love I Found You
TTITLE7=Gone With The Wind
EXTD=
EXTT0=
EXTT1=
EXTT2=
EXTT3=
EXTT4=
EXTT5=
EXTT6=
EXTT7=
PLAYORDER=
